<?xml version="1.0" encoding="UTF-8" standalone="no"?>
<svg
   version="1.1"
   viewBox="-5 -10 83.335999 83.335999"
   id="svg2"
   sodipodi:docname="calendar.svg"
   width="83.335999"
   height="83.335999"
   inkscape:version="1.4.2 (ebf0e940d0, 2025-05-08)"
   xmlns:inkscape="http://www.inkscape.org/namespaces/inkscape"
   xmlns:sodipodi="http://sodipodi.sourceforge.net/DTD/sodipodi-0.dtd"
   xmlns="http://www.w3.org/2000/svg"
   xmlns:svg="http://www.w3.org/2000/svg">
  <defs
     id="defs2" />
  <sodipodi:namedview
     id="namedview2"
     pagecolor="#ffffff"
     bordercolor="#000000"
     borderopacity="0.25"
     inkscape:showpageshadow="2"
     inkscape:pageopacity="0.0"
     inkscape:pagecheckerboard="0"
     inkscape:deskcolor="#d1d1d1"
     inkscape:zoom="4.4888889"
     inkscape:cx="41.658416"
     inkscape:cy="49.232673"
     inkscape:window-width="1536"
     inkscape:window-height="878"
     inkscape:window-x="0"
     inkscape:window-y="0"
     inkscape:window-maximized="1"
     inkscape:current-layer="svg2" />
  <path
     d="m 18.793,28.711 c 0.75,0.78906 1.207,1.8711 1.207,2.957 0,1.082 -0.46094,2.168 -1.207,2.957 -0.41797,0.375 -0.875,0.66797 -1.375,0.875 -0.5,0.20703 -1.043,0.33594 -1.582,0.33594 -1.0859,0 -2.168,-0.46094 -2.957,-1.207 -0.75391,-0.79297 -1.2109,-1.8359 -1.2109,-2.9609 0,-0.54297 0.125,-1.0859 0.33203,-1.5859 0.21094,-0.54297 0.5,-1 0.875,-1.375 1.5859,-1.5391 4.332,-1.5391 5.918,0.0039 z M 78.336,10.836 v 50 c 0,6.8945 -5.6055,12.5 -12.5,12.5 H 7.5 C 0.6055,73.336 -5,67.7305 -5,60.836 v -50 c 0,-6.8945 5.6055,-12.5 12.5,-12.5 h 8.332 l 0.0039,-4.168 c 0,-2.3008 1.8672,-4.168 4.168,-4.168 2.3008,0 4.168,1.8672 4.168,4.168 v 4.168 h 25 L 49.168,-5.832 c 0,-2.3008 1.8633,-4.168 4.168,-4.168 2.3047,0 4.168,1.8672 4.168,4.168 v 4.168 h 8.332 c 6.8906,0 12.5,5.6055 12.5,12.5 z m -8.3359,0 c 0,-2.2969 -1.8672,-4.168 -4.168,-4.168 h -8.332 v 4.168 c 0,2.3008 -1.8633,4.168 -4.168,4.168 -2.3047,0 -4.168,-1.8672 -4.168,-4.168 l 0.0039,-4.168 h -25 v 4.168 c 0,2.3008 -1.8672,4.168 -4.168,4.168 -2.3008,-0.0039 -4.1641,-1.8672 -4.1641,-4.168 V 6.668 h -8.3359 c -2.2969,0 -4.1641,1.8711 -4.1641,4.168 v 50 c 0,2.2969 1.8711,4.168 4.168,4.168 h 58.332 c 2.3008,0 4.168,-1.8711 4.168,-4.168 z m -57.125,34.539 c -0.375,0.41406 -0.66797,0.83203 -0.875,1.375 -0.20703,0.5 -0.33203,1.043 -0.33203,1.5859 0,1.125 0.45703,2.168 1.207,2.957 0.79297,0.75 1.875,1.207 2.9609,1.207 0.54297,0 1.082,-0.125 1.582,-0.33203 0.5,-0.21094 0.95703,-0.5 1.375,-0.875 0.16797,-0.21094 0.33203,-0.41797 0.5,-0.625 0.16406,-0.25 0.29297,-0.5 0.375,-0.75 0.125,-0.25 0.20703,-0.5 0.25,-0.75 C 19.95703,48.8749 20,48.58584 20,48.33584 c 0,-1.0859 -0.46094,-2.168 -1.207,-2.957 -1.5859,-1.543 -4.332,-1.543 -5.918,-0.0039 z m 14.625,-1.125 c -0.25,0.03906 -0.5,0.125 -0.75,0.25 -0.25,0.08203 -0.5,0.21094 -0.75,0.375 -0.20703,0.125 -0.41406,0.33594 -0.625,0.5 -0.375,0.41406 -0.66797,0.83203 -0.875,1.375 -0.20703,0.5 -0.33203,1.043 -0.33203,1.5859 0,1.125 0.45703,2.168 1.207,2.957 0.21094,0.16797 0.41797,0.375 0.625,0.5 0.25,0.16406 0.5,0.29297 0.75,0.375 0.25,0.125 0.5,0.20703 0.75,0.25 0.29297,0.03906 0.58594,0.08203 0.83594,0.08203 0.54297,0 1.082,-0.08203 1.582,-0.33203 0.54297,-0.21094 0.95703,-0.5 1.375,-0.875 0.16797,-0.21094 0.375,-0.41797 0.5,-0.625 0.16797,-0.25 0.29297,-0.5 0.375,-0.75 0.125,-0.25 0.20703,-0.5 0.25,-0.75 0.03906,-0.29297 0.08203,-0.58203 0.08203,-0.83203 0,-1.0859 -0.46094,-2.168 -1.207,-2.957 -1,-0.96094 -2.418,-1.3789 -3.793,-1.1289 z m 0,-16.664 c -0.25,0.03906 -0.5,0.125 -0.75,0.25 -0.25,0.08203 -0.5,0.20703 -0.75,0.375 -0.20703,0.16406 -0.41406,0.33203 -0.625,0.5 -0.375,0.41406 -0.66797,0.83203 -0.875,1.375 -0.20703,0.49609 -0.33203,1.0391 -0.33203,1.582 0,0.5429 0.125,1.082 0.33203,1.582 0.21094,0.5 0.5,0.96094 0.875,1.375 0.21094,0.16797 0.41797,0.33594 0.625,0.5 0.25,0.16797 0.5,0.29297 0.75,0.375 0.25,0.125 0.5,0.20703 0.75,0.25 0.29297,0.04297 0.58594,0.08594 0.83594,0.08594 1.082,0 2.168,-0.46094 2.957,-1.207 0.75,-0.79297 1.207,-1.8789 1.207,-2.9609 0,-1.0859 -0.46094,-2.168 -1.207,-2.957 -1,-0.96094 -2.418,-1.375 -3.793,-1.125 z m 28.168,17.289 c -0.25,-0.16797 -0.5,-0.29297 -0.75,-0.375 -0.25391,-0.125 -0.5,-0.20703 -0.79297,-0.25 -1.332,-0.25 -2.793,0.16797 -3.7461,1.125 -0.75391,0.79297 -1.2109,1.8359 -1.2109,2.9609 0,0.54297 0.125,1.082 0.33203,1.582 0.20703,0.5 0.5,0.95703 0.875,1.375 0.20703,0.16797 0.41406,0.33203 0.62109,0.5 0.25391,0.16797 0.5,0.29297 0.75391,0.375 0.25,0.125 0.5,0.20703 0.75,0.25 0.29297,0.03906 0.58203,0.08203 0.83594,0.08203 0.25,0 0.54297,-0.04297 0.78906,-0.08203 0.29297,-0.04297 0.54297,-0.125 0.79297,-0.25 0.25,-0.08203 0.5,-0.21094 0.75,-0.375 0.20703,-0.16406 0.41797,-0.33203 0.625,-0.5 0.375,-0.41797 0.66797,-0.875 0.875,-1.375 0.20703,-0.5 0.33203,-1.043 0.33203,-1.582 0,-1.125 -0.46094,-2.168 -1.207,-2.957 -0.20703,-0.16797 -0.41797,-0.33594 -0.625,-0.50391 z m -11.875,0.5 c -0.96094,-0.95703 -2.418,-1.375 -3.75,-1.125 -0.29297,0.03906 -0.54297,0.125 -0.79297,0.25 -0.25,0.08203 -0.5,0.21094 -0.75,0.375 -0.21094,0.125 -0.41797,0.33203 -0.625,0.5 -0.375,0.375 -0.66797,0.83203 -0.875,1.375 -0.20703,0.5 -0.33203,1.043 -0.33203,1.5859 0,0.5429 0.125,1.082 0.33203,1.582 0.21094,0.5 0.5,0.95703 0.875,1.375 0.20703,0.16797 0.41406,0.33203 0.625,0.5 0.25,0.16797 0.5,0.29297 0.75,0.375 0.25,0.125 0.5,0.20703 0.79297,0.25 0.25,0.03906 0.54297,0.08203 0.79297,0.08203 1.082,0 2.1641,-0.46094 2.957,-1.207 0.375,-0.41797 0.66797,-0.875 0.875,-1.375 0.20703,-0.5 0.33203,-1.043 0.33203,-1.582 0,-0.54297 -0.125,-1.0859 -0.33203,-1.5859 -0.20703,-0.54297 -0.5,-0.95703 -0.875,-1.375 z"
     id="path1" />
</svg>
