<?xml version="1.0" encoding="UTF-8" standalone="no"?>
<svg
   version="1.1"
   width="654.72272"
   height="556.94421"
   style="clip-rule:evenodd;fill-rule:evenodd;image-rendering:optimizeQuality;shape-rendering:geometricPrecision;text-rendering:geometricPrecision"
   id="svg31"
   sodipodi:docname="undefined.svg"
   inkscape:version="1.4.2 (ebf0e940d0, 2025-05-08)"
   xmlns:inkscape="http://www.inkscape.org/namespaces/inkscape"
   xmlns:sodipodi="http://sodipodi.sourceforge.net/DTD/sodipodi-0.dtd"
   xmlns="http://www.w3.org/2000/svg"
   xmlns:svg="http://www.w3.org/2000/svg">
  <defs
     id="defs31">
    <inkscape:path-effect
       effect="powerclip"
       message=""
       id="path-effect32"
       is_visible="true"
       lpeversion="1"
       inverse="true"
       flatten="false"
       hide_clip="false" />
    <clipPath
       clipPathUnits="userSpaceOnUse"
       id="clipPath32">
      <g
         id="g32"
         style="display:none">
        <path
           style="opacity:1"
           fill="#f9f7f5"
           d="m 758.5,637.5 c 17.132,-2.184 27.132,5.15 30,22 -2.219,17.049 -11.886,24.549 -29,22.5 -14.782,-6.398 -19.616,-17.231 -14.5,-32.5 3.454,-5.294 7.954,-9.294 13.5,-12 z"
           id="path32" />
      </g>
      <path
         id="lpe_path-effect32"
         class="powerclip"
         d="M 696.69599,592.5 H 833.50025 V 728.48948 H 696.69599 Z m 61.80401,45 c -5.546,2.706 -10.046,6.706 -13.5,12 -5.116,15.269 -0.282,26.102 14.5,32.5 17.114,2.049 26.781,-5.451 29,-22.5 -2.868,-16.85 -12.868,-24.184 -30,-22 z" />
    </clipPath>
  </defs>
  <sodipodi:namedview
     id="namedview31"
     pagecolor="#ffffff"
     bordercolor="#000000"
     borderopacity="0.25"
     inkscape:showpageshadow="2"
     inkscape:pageopacity="0.0"
     inkscape:pagecheckerboard="true"
     inkscape:deskcolor="#d1d1d1"
     inkscape:zoom="0.87551672"
     inkscape:cx="336.94388"
     inkscape:cy="230.72089"
     inkscape:window-width="1536"
     inkscape:window-height="878"
     inkscape:window-x="0"
     inkscape:window-y="0"
     inkscape:window-maximized="1"
     inkscape:current-layer="svg31" />
  <g
     id="g7"
     transform="translate(-185.37739,-166.54529)">
    <path
       style="opacity:1"
       fill="#cd6427"
       d="m 838.5,319.5 c 5.416,31.355 -2.917,58.355 -25,81 -23.265,20.149 -49.932,27.149 -80,21 4.915,-6.124 10.081,-12.124 15.5,-18 5.301,-12.687 1.134,-18.853 -12.5,-18.5 -10.713,9.034 -21.046,18.534 -31,28.5 -1.444,-26.653 -2.611,-53.32 -3.5,-80 -2.849,-8.951 -8.682,-11.784 -17.5,-8.5 -2.456,2.408 -4.289,5.241 -5.5,8.5 -0.804,22.355 -1.971,44.688 -3.5,67 -12.812,-10.311 -25.479,-20.811 -38,-31.5 -12.64,-1.234 -17.14,4.266 -13.5,16.5 11.041,10.54 21.541,21.54 31.5,33 -0.333,0 -0.667,0 -1,0 -32.217,10.89 -61.217,5.223 -87,-17 -23.621,-23.536 -32.621,-51.87 -27,-85 8.176,-31.18 27.51,-52.18 58,-63 4.843,-45.675 29.51,-74.175 74,-85.5 42.31,-6.361 75.143,8.139 98.5,43.5 7.43,13.721 11.43,28.387 12,44 29.348,11.853 47.848,33.186 55.5,64 z"
       id="path7" />
  </g>
  <g
     id="g9"
     transform="translate(-185.37739,-166.54529)">
    <path
       style="opacity:1"
       fill="#593422"
       d="m 733.5,421.5 c -9.343,9.847 -18.176,20.181 -26.5,31 1.425,44.721 3.925,89.388 7.5,134 -0.904,0.709 -1.237,1.709 -1,3 -17,0 -34,0 -51,0 1.189,-14.159 2.522,-28.159 4,-42 1.949,-11.264 3.282,-25.264 4,-42 -0.003,-2.525 -0.337,-4.859 -1,-7 1.873,-20.308 3.04,-40.641 3.5,-61 -5.699,-6.53 -11.533,-12.863 -17.5,-19 -9.959,-11.46 -20.459,-22.46 -31.5,-33 -3.64,-12.234 0.86,-17.734 13.5,-16.5 12.521,10.689 25.188,21.189 38,31.5 1.529,-22.312 2.696,-44.645 3.5,-67 1.211,-3.259 3.044,-6.092 5.5,-8.5 8.818,-3.284 14.651,-0.451 17.5,8.5 0.889,26.68 2.056,53.347 3.5,80 9.954,-9.966 20.287,-19.466 31,-28.5 13.634,-0.353 17.801,5.813 12.5,18.5 -5.419,5.876 -10.585,11.876 -15.5,18 z"
       id="path9" />
  </g>
  <g
     id="g10"
     transform="translate(-185.37739,-166.54529)">
    <path
       style="opacity:1"
       fill="#d76721"
       d="m 265.5,355.5 c 7.521,1.347 13.688,5.014 18.5,11 45.698,66.165 91.865,131.831 138.5,197 -0.167,45.001 0,90.001 0.5,135 0.997,1.823 2.164,3.49 3.5,5 -2.589,-0.919 -4.589,-2.586 -6,-5 -47.333,-66.333 -94.667,-132.667 -142,-199 -0.06,-0.543 -0.393,-0.876 -1,-1 -1,64.997 -1.333,129.997 -1,195 0.237,1.291 -0.096,2.291 -1,3 0.065,-0.438 -0.101,-0.772 -0.5,-1 -1.833,4.5 -5,7.667 -9.5,9.5 -23.17,0.168 -46.17,0.668 -69,1.5 -4.584,-1.582 -7.917,-4.582 -10,-9 0.833,-110.499 1.333,-221.166 1.5,-332 0.791,-1.245 1.291,-2.578 1.5,-4 -0.086,-0.996 0.248,-1.829 1,-2.5 2,-1 4,-2 6,-3 22.998,-0.5 45.998,-0.667 69,-0.5 z"
       id="path10" />
  </g>
  <g
     id="g11"
     transform="translate(-185.37739,-166.54529)">
    <path
       style="opacity:1"
       fill="#507741"
       d="m 504.5,355.5 c 5.912,1.411 9.746,5.077 11.5,11 0.667,26 0.667,52 0,78 -14.755,21.176 -29.755,42.176 -45,63 -6.834,9.484 -7.168,19.151 -1,29 15.088,21.842 30.421,43.509 46,65 0.667,31.333 0.667,62.667 0,94 -1.599,5.094 -4.766,8.761 -9.5,11 -24.636,1.138 -49.303,1.305 -74,0.5 -2.379,-0.716 -4.379,-1.883 -6,-3.5 -1.336,-1.51 -2.503,-3.177 -3.5,-5 -0.5,-44.999 -0.667,-89.999 -0.5,-135 0.677,-66.527 1.343,-133.194 2,-200 1.489,-3.653 4.156,-6.153 8,-7.5 23.998,-0.5 47.998,-0.667 72,-0.5 z"
       id="path11" />
  </g>
  <g
     id="g13"
     transform="translate(-185.37739,-166.54529)">
    <path
       style="opacity:1"
       fill="#507641"
       d="m 567.5,401.5 c 25.783,22.223 54.783,27.89 87,17 -20.871,29.718 -42.371,59.051 -64.5,88 -2.054,2.774 -3.554,5.774 -4.5,9 1.102,4.87 3.268,9.203 6.5,13 36.245,50.157 72.245,100.491 108,151 2.542,4.246 4.376,8.746 5.5,13.5 -0.262,3.96 -1.596,7.46 -4,10.5 -2.027,1.68 -4.361,2.847 -7,3.5 -26.333,0.667 -52.667,0.667 -79,0 -2.946,-0.806 -5.612,-2.139 -8,-4 C 565.945,645.111 524.778,586.944 484,528.5 c -2.296,-4.877 -1.963,-9.544 1,-14 27.032,-38.089 54.532,-75.755 82.5,-113 z"
       id="path13" />
  </g>
  <g
     id="g14"
     transform="translate(-185.37739,-166.54529)">
    <path
       style="opacity:1"
       fill="#1c510d"
       d="m 424.5,363.5 c -0.657,66.806 -1.323,133.473 -2,200 -0.167,-66.001 0,-132.001 0.5,-198 0.278,-0.916 0.778,-1.582 1.5,-2 z"
       id="path14" />
  </g>
  <g
     id="g16"
     transform="translate(-185.37739,-166.54529)">
    <path
       style="opacity:1"
       fill="#3c1811"
       d="m 669.5,498.5 c 0.663,2.141 0.997,4.475 1,7 -0.718,16.736 -2.051,30.736 -4,42 0.858,-16.343 1.858,-32.676 3,-49 z"
       id="path16" />
  </g>
  <g
     id="g19"
     transform="translate(-185.37739,-166.54529)">
    <path
       style="opacity:1"
       fill="#2b0601"
       d="m 714.5,586.5 c 0,1.333 0,2.667 0,4 -17.508,0.33 -34.841,-0.003 -52,-1 17,0 34,0 51,0 -0.237,-1.291 0.096,-2.291 1,-3 z"
       id="path19" />
  </g>
  <g
     id="g20"
     transform="translate(-185.37739,-166.54529)">
    <path
       style="opacity:1"
       fill="#f3ded1"
       d="m 278.5,499.5 c -0.667,64.667 -1.333,129.333 -2,194 -0.333,-65.003 0,-130.003 1,-195 0.607,0.124 0.94,0.457 1,1 z"
       id="path20" />
  </g>
  <g
     id="g21"
     clip-path="url(#clipPath32)"
     inkscape:path-effect="#path-effect32"
     transform="translate(-185.37739,-166.54529)">
    <path
       style="opacity:1"
       fill="#d76621"
       d="m 816.5,698.5 c -3.463,3.964 -7.13,7.798 -11,11.5 -2,0.667 -4,0.667 -6,0 -6.682,-6.061 -13.182,-5.894 -19.5,0.5 -0.896,4.268 -2.396,8.268 -4.5,12 -5.948,1.124 -11.948,1.29 -18,0.5 -2.354,-3.884 -4.188,-8.051 -5.5,-12.5 -2.807,-2.609 -6.14,-4.276 -10,-5 -3.56,1.195 -6.726,3.029 -9.5,5.5 -1.667,0.667 -3.333,0.667 -5,0 -3.869,-4.037 -7.869,-7.87 -12,-11.5 0.341,-4.692 1.841,-9.026 4.5,-13 0.163,-3.864 -1.004,-7.364 -3.5,-10.5 -4.388,-1.347 -8.721,-2.847 -13,-4.5 -2.225,-7.002 -2.392,-14.002 -0.5,-21 4.174,-1.421 8.341,-2.921 12.5,-4.5 2.807,-3.748 3.973,-7.914 3.5,-12.5 -1.667,-2.667 -3.333,-5.333 -5,-8 -0.667,-1.333 -0.667,-2.667 0,-4 3.167,-4.5 7,-8.333 11.5,-11.5 1.667,-0.667 3.333,-0.667 5,0 3.279,2.223 6.779,4.057 10.5,5.5 2.776,-1.305 5.61,-2.471 8.5,-3.5 1.971,-4.219 3.638,-8.552 5,-13 7,-2 14,-2 21,0 1.589,4.179 3.256,8.346 5,12.5 3.302,2.549 6.969,3.382 11,2.5 3.23,-2.073 6.563,-3.906 10,-5.5 5.253,3.747 10.086,8.08 14.5,13 0.667,1 0.667,2 0,3 -1.667,3 -3.333,6 -5,9 -0.299,4.767 1.201,8.934 4.5,12.5 4.282,1.276 8.449,2.776 12.5,4.5 0.667,6.667 0.667,13.333 0,20 -4.051,1.724 -8.218,3.224 -12.5,4.5 -2.794,3.4 -3.96,7.233 -3.5,11.5 2.345,3.688 3.845,7.688 4.5,12 z"
       id="path21"
       inkscape:original-d="m 816.5,698.5 c -3.463,3.964 -7.13,7.798 -11,11.5 -2,0.667 -4,0.667 -6,0 -6.682,-6.061 -13.182,-5.894 -19.5,0.5 -0.896,4.268 -2.396,8.268 -4.5,12 -5.948,1.124 -11.948,1.29 -18,0.5 -2.354,-3.884 -4.188,-8.051 -5.5,-12.5 -2.807,-2.609 -6.14,-4.276 -10,-5 -3.56,1.195 -6.726,3.029 -9.5,5.5 -1.667,0.667 -3.333,0.667 -5,0 -3.869,-4.037 -7.869,-7.87 -12,-11.5 0.341,-4.692 1.841,-9.026 4.5,-13 0.163,-3.864 -1.004,-7.364 -3.5,-10.5 -4.388,-1.347 -8.721,-2.847 -13,-4.5 -2.225,-7.002 -2.392,-14.002 -0.5,-21 4.174,-1.421 8.341,-2.921 12.5,-4.5 2.807,-3.748 3.973,-7.914 3.5,-12.5 -1.667,-2.667 -3.333,-5.333 -5,-8 -0.667,-1.333 -0.667,-2.667 0,-4 3.167,-4.5 7,-8.333 11.5,-11.5 1.667,-0.667 3.333,-0.667 5,0 3.279,2.223 6.779,4.057 10.5,5.5 2.776,-1.305 5.61,-2.471 8.5,-3.5 1.971,-4.219 3.638,-8.552 5,-13 7,-2 14,-2 21,0 1.589,4.179 3.256,8.346 5,12.5 3.302,2.549 6.969,3.382 11,2.5 3.23,-2.073 6.563,-3.906 10,-5.5 5.253,3.747 10.086,8.08 14.5,13 0.667,1 0.667,2 0,3 -1.667,3 -3.333,6 -5,9 -0.299,4.767 1.201,8.934 4.5,12.5 4.282,1.276 8.449,2.776 12.5,4.5 0.667,6.667 0.667,13.333 0,20 -4.051,1.724 -8.218,3.224 -12.5,4.5 -2.794,3.4 -3.96,7.233 -3.5,11.5 2.345,3.688 3.845,7.688 4.5,12 z" />
  </g>
  <g
     id="g22"
     transform="translate(-185.37739,-166.54529)">
    <path
       style="opacity:1"
       fill="#d45a15"
       d="m 189.5,361.5 c -0.209,1.422 -0.709,2.755 -1.5,4 -0.167,110.834 -0.667,221.501 -1.5,332 -0.996,-109.959 -1.329,-219.959 -1,-330 0.851,-2.382 2.184,-4.382 4,-6 z"
       id="path22" />
  </g>
  <g
     id="g27"
     transform="translate(-185.37739,-166.54529)">
    <path
       style="opacity:1"
       fill="#d65e20"
       d="m 275.5,696.5 c -2.102,5.769 -6.102,9.436 -12,11 -22.408,0.322 -44.742,-0.011 -67,-1 22.83,-0.832 45.83,-1.332 69,-1.5 4.5,-1.833 7.667,-5 9.5,-9.5 0.399,0.228 0.565,0.562 0.5,1 z"
       id="path27" />
  </g>
  <g
     id="g31"
     transform="translate(-185.37739,-166.54529)" />
</svg>
